<?xml version="1.0" encoding="UTF-8"?>
<svg width="134px" height="29px" viewBox="0 0 134 29" version="1.1" xmlns="http://www.w3.org/2000/svg" xmlns:xlink="http://www.w3.org/1999/xlink">
    <!-- Generator: Sketch 43.2 (39069) - http://www.bohemiancoding.com/sketch -->
    <title>codota-logo-light</title>
    <desc>Created with Sketch.</desc>
    <defs>
        <linearGradient x1="-190.579726%" y1="255.006285%" x2="50%" y2="44.6976422%" id="linearGradient-1">
            <stop stop-color="#2DD7C9" offset="0%"></stop>
            <stop stop-color="#1B80AA" offset="100%"></stop>
        </linearGradient>
        <linearGradient x1="50%" y1="64.9819942%" x2="93.7286743%" y2="3.67419829%" id="linearGradient-2">
            <stop stop-color="#42DCCC" offset="0%"></stop>
            <stop stop-color="#32F2BE" offset="100%"></stop>
        </linearGradient>
        <linearGradient x1="50%" y1="64.9819942%" x2="94.0516915%" y2="3.22132676%" id="linearGradient-3">
            <stop stop-color="#42DCCC" offset="0%"></stop>
            <stop stop-color="#32F2BE" offset="100%"></stop>
        </linearGradient>
    </defs>
    <g id="Assets" stroke="none" stroke-width="1" fill="none" fill-rule="evenodd">
        <g id="codota-logo-light">
            <g id="text" transform="translate(41.423267, 2.775207)" fill-rule="nonzero" fill="#EAE9EE">
                <path d="M22.5716606,21.0910831 C27.3759304,21.0910831 30.1072044,17.853637 30.1072044,13.1082038 C30.1072044,8.36277061 27.3759304,5.12532454 22.5716606,5.12532454 C17.7673908,5.12532454 15.0361168,8.36277061 15.0361168,13.1082038 C15.0361168,17.853637 17.7673908,21.0910831 22.5716606,21.0910831 Z M22.5716606,18.7858184 C19.1176853,18.7858184 17.3202935,16.6553258 17.3202935,13.1082038 C17.3202935,9.56108181 19.1176853,7.43058916 22.5716606,7.43058916 C26.0256358,7.43058916 27.8230276,9.56108181 27.8230276,13.1082038 C27.8230276,16.6553258 26.0256358,18.7858184 22.5716606,18.7858184 Z" id="Oval"></path>
                <path d="M39.3603146,21.0910831 C43.9597458,21.0910831 46.5531871,17.8429211 46.5531871,13.1082038 C46.5531871,8.37348651 43.9597458,5.12532454 39.3603146,5.12532454 C34.7608834,5.12532454 32.1674422,8.37348651 32.1674422,13.1082038 C32.1674422,17.8429211 34.7608834,21.0910831 39.3603146,21.0910831 Z M39.3603146,18.7858184 C36.1441196,18.7858184 34.4516189,16.6660417 34.4516189,13.1082038 C34.4516189,9.5503659 36.1441196,7.43058916 39.3603146,7.43058916 C42.5765096,7.43058916 44.2690103,9.5503659 44.2690103,13.1082038 C44.2690103,16.6660417 42.5765096,18.7858184 39.3603146,18.7858184 Z" id="Oval-Copy-2"></path>
                <path d="M56.6058937,21.0910831 C61.4101635,21.0910831 64.1414375,17.853637 64.1414375,13.1082038 C64.1414375,8.36277061 61.4101635,5.12532454 56.6058937,5.12532454 C51.8016239,5.12532454 49.0703499,8.36277061 49.0703499,13.1082038 C49.0703499,17.853637 51.8016239,21.0910831 56.6058937,21.0910831 Z M56.6058937,18.7858184 C53.1519184,18.7858184 51.3545266,16.6553258 51.3545266,13.1082038 C51.3545266,9.56108181 53.1519184,7.43058916 56.6058937,7.43058916 C60.0598689,7.43058916 61.8572607,9.56108181 61.8572607,13.1082038 C61.8572607,16.6553258 60.0598689,18.7858184 56.6058937,18.7858184 Z" id="Oval-Copy-3"></path>
                <path d="M82.0744193,21.0910831 C86.8102314,21.0910831 89.4957094,17.8500006 89.4957094,13.1082038 C89.4957094,8.366407 86.8102314,5.12532454 82.0744193,5.12532454 C77.3386071,5.12532454 74.6531291,8.366407 74.6531291,13.1082038 C74.6531291,17.8500006 77.3386071,21.0910831 82.0744193,21.0910831 Z M82.0744193,18.7858184 C78.6995645,18.7858184 76.9373059,16.6589622 76.9373059,13.1082038 C76.9373059,9.55744541 78.6995645,7.43058916 82.0744193,7.43058916 C85.449274,7.43058916 87.2115326,9.55744541 87.2115326,13.1082038 C87.2115326,16.6589622 85.449274,18.7858184 82.0744193,18.7858184 Z" id="Oval-Copy-4"></path>
                <path d="M13.5161372,7.45895007 C10.4241607,4.33842793 5.16209439,4.3418925 2.30064315,7.50295396 C-0.512214875,10.6103342 -0.515497712,15.606454 2.2942522,18.7107904 C5.15277362,21.8690118 10.4148649,21.8655472 13.5097944,18.7420448 C13.5097944,18.7420448 13.3213333,18.1843643 12.8675431,17.7287703 C12.4137529,17.2731763 11.8946375,17.1119766 11.8946375,17.1119766 C9.70371613,19.323125 5.94441803,19.3256001 3.98073299,17.1560337 C1.96837041,14.9326862 1.9707671,11.2851916 3.98702761,9.05781712 C5.95460081,6.88422782 9.71390612,6.88175267 11.9009803,9.08901832 C11.9009803,9.08901832 12.3450519,9.04862377 12.8675431,8.50320933 C13.3900343,7.95779489 13.5161372,7.45895007 13.5161372,7.45895007 Z" id="Oval-Copy"></path>
                <path d="M72.9639341,18.7858274 C72.9503643,18.7856702 72.3181499,18.7497766 72.1538672,18.7225458 C71.685854,18.6449697 71.2198303,18.510245 70.7963671,18.3094808 C69.7011937,17.7902581 69.0792467,16.9468056 69.0428509,15.5478937 C69.0028632,14.0109255 68.9754812,11.8240777 68.9589523,9.15750201 C68.9417762,6.38650037 68.9426369,0.545485843 68.9427075,0.517678129 C68.9427075,0.517678129 68.6527678,0.283095351 67.8282618,0.284273249 C67.0037558,0.285451147 66.6585382,0.511778521 66.6585382,0.511778521 C66.6584663,0.540168453 66.6576013,6.39400023 66.6748203,9.17192288 C66.6914369,11.8526597 66.7189824,14.0525578 66.7594612,15.6084032 C66.8200713,17.9380165 67.9914984,19.5266457 69.8251669,20.3959895 C70.4567969,20.6954458 71.1212303,20.8875295 71.7836741,20.9973336 C72.184041,21.0636969 72.7326874,21.0885651 72.9377185,21.0909402 C72.9377185,21.0909402 73.2637598,21.0051054 73.2676522,19.9383838 C73.2715447,18.8716622 72.9639341,18.7858274 72.9639341,18.7858274 Z" id="Path-7-Copy"></path>
                <path d="M92.1442339,18.8017179 C92.0384243,18.8042544 91.7650354,18.7834353 91.5661755,18.7581787 C91.2650712,18.7199363 90.9707314,18.6477727 90.7070476,18.5378393 C89.9768781,18.2334215 89.5937842,17.7177057 89.5937842,16.731383 C89.5937842,15.7471434 89.5000159,12.4852537 89.5000159,12.4852537 C89.5000159,12.4852537 89.2734425,12.2851212 88.3720205,12.2721801 C87.4705985,12.2592391 87.2161011,12.4852537 87.2161011,12.4852537 C87.2161011,12.4852537 87.3096075,15.7524908 87.3096075,16.731383 C87.3096075,18.7036502 88.2909863,20.024769 89.8349378,20.6684639 C90.3026645,20.8634656 90.7908457,20.9831535 91.2809722,21.045403 C91.6015206,21.086115 91.8793377,21.0974312 92.095662,21.0920173 C92.1278899,21.091068 92.1278899,21.091068 92.1442339,21.0903318 C92.1442339,21.0903318 92.4121246,20.8936867 92.4026276,19.938986 C92.3931307,18.9842853 92.1442339,18.8017179 92.1442339,18.8017179 Z" id="Path-7-Copy-4"></path>
                <path d="M71.751558,5.12532454 L67.115346,5.12532454 L67.115346,7.43058916 L71.751558,7.43058916 C71.751558,7.43058916 71.9967669,7.2523814 71.9799757,6.29186948 C71.9631845,5.33135757 71.751558,5.12532454 71.751558,5.12532454 Z" id="Path-7-Copy-2"></path>
                <path d="M46.5120692,13.7223842 L46.5120692,0.514873365 C46.5120692,0.514873365 46.2840961,0.279360608 45.4508577,0.284346903 C44.6176192,0.289333197 44.3421013,0.514873365 44.3421013,0.514873365 L44.3421013,13.7223842 C44.3421013,13.7223842 44.4934057,13.926648 45.4270853,13.9529101 C46.3607648,13.9791721 46.5120692,13.7223842 46.5120692,13.7223842 Z" id="Path-7"></path>
            </g>
            <g id="Group-2">
                <g id="Group-Copy-3" transform="translate(24.538411, 14.500000) scale(1, -1) translate(-24.538411, -14.500000) translate(17.756233, 0.000000)">
                    <path d="M1.72822975,7.94591881 C1.72822975,6.88753548 2.49611878,5.64048824 3.42999631,5.16733059 L13.4315728,0.0999398092 L13.4315728,17.2407269 L3.42999631,22.3081177 C2.49013659,22.7843062 1.72822975,22.320319 1.72822975,21.2539608 L1.72822975,7.94591881 Z" id="Rectangle-Copy-4" fill="url(#linearGradient-1)" transform="translate(7.579901, 11.293220) scale(1, -1) translate(-7.579901, -11.293220) "></path>
                    <path d="M0,14.3594781 C0,13.3010948 0.760623771,12.0411835 1.68751778,11.5514025 L13.4315728,5.34571385 L13.4315728,22.4865009 L1.68751778,28.6921895 C0.755527446,29.1846636 0,28.7338783 0,27.6675201 L0,14.3594781 Z" id="Rectangle-Copy-5" fill="url(#linearGradient-2)"></path>
                </g>
                <g id="Group-Copy" transform="translate(6.841420, 14.500000) scale(-1, 1) translate(-6.841420, -14.500000) translate(0.059242, 0.000000)">
                    <path d="M1.72822975,7.94591881 C1.72822975,6.88753548 2.49611878,5.64048824 3.42999631,5.16733059 L13.4315728,0.0999398092 L13.4315728,17.2407269 L3.42999631,22.3081177 C2.49013659,22.7843062 1.72822975,22.320319 1.72822975,21.2539608 L1.72822975,7.94591881 Z" id="Rectangle-Copy-4" fill="url(#linearGradient-1)" transform="translate(7.579901, 11.293220) scale(1, -1) translate(-7.579901, -11.293220) "></path>
                    <path d="M0,14.3594781 C0,13.3010948 0.760623771,12.0411835 1.68751778,11.5514025 L13.4315728,5.34571385 L13.4315728,22.4865009 L1.68751778,28.6921895 C0.755527446,29.1846636 0,28.7338783 0,27.6675201 L0,14.3594781 Z" id="Rectangle-Copy-5" fill="url(#linearGradient-3)"></path>
                </g>
            </g>
        </g>
    </g>
</svg>