<?xml version="1.0" encoding="UTF-8"?>
<svg width="782px" height="514px" viewBox="0 0 782 514" version="1.1" xmlns="http://www.w3.org/2000/svg" xmlns:xlink="http://www.w3.org/1999/xlink">
    <!-- Generator: Sketch 43.2 (39069) - http://www.bohemiancoding.com/sketch -->
    <title>ide-dark-tablet</title>
    <desc>Created with Sketch.</desc>
    <defs></defs>
    <g id="Assets" stroke="none" stroke-width="1" fill="none" fill-rule="evenodd" opacity="0.400000006">
        <g id="ide-dark-tablet" transform="translate(1.000000, 1.000000)">
            <rect id="Path" stroke="#807D83" stroke-linecap="round" x="0" y="0" width="780" height="512.372093" rx="10"></rect>
            <path d="M0,9.99356683 C0,4.47427227 4.4831111,0 10.0042372,0 L769.995763,0 C775.52095,0 780,4.47841124 780,9.99356683 L780,34.391235 L168.85631,34.391235 L168.85631,23.5496073 C168.85631,21.8903358 167.506928,20.5452305 165.861371,20.5452305 L116.146323,20.5452305 C114.492264,20.5452305 113.151385,21.8980539 113.151385,23.5496073 L113.151385,34.391235 L0,34.391235 L0,9.99356683 Z" id="Rectangle-9-Copy" stroke="#807D83"></path>
            <path d="M118.681065,88.6245847 L214.205994,88.6245847" id="Path-9" stroke="#807D83" stroke-linecap="round"></path>
            <path d="M133.033225,102.976744 L241.869464,102.976744" id="Path-9-Copy" stroke="#B54A91" stroke-linecap="round"></path>
            <path d="M147.385384,117.328904 L241.869464,117.328904" id="Path-9-Copy-12" stroke="#2796DB" stroke-linecap="round"></path>
            <path d="M139.933555,134.150464 L195.853963,134.150464" id="Path-9-Copy-3" stroke="#EBB430" stroke-linecap="round"></path>
            <path d="M118.405316,171.149502 L151.918719,171.149502" id="Path-9-Copy-2" stroke="#807D83" stroke-linecap="round"></path>
            <circle id="Oval-4" stroke="#807D83" stroke-width="0.82944" cx="16.5049834" cy="17.2225914" r="3.58803987"></circle>
            <circle id="Oval-4-Copy" stroke="#807D83" stroke-width="0.82944" cx="29.5056864" cy="17.2225914" r="3.58803987"></circle>
            <circle id="Oval-4-Copy-2" stroke="#807D83" stroke-width="0.82944" cx="42.5063894" cy="17.2225914" r="3.58803987"></circle>
            <path d="M86.1129568,45.178445 L86.1129568,493.976835" id="Path-5" stroke="#807D83"></path>
            <path d="M740.172757,44.4916944 L740.172757,493.290084" id="Path-5-Copy-6" stroke="#807D83"></path>
            <rect id="Rectangle-4" stroke="#807D83" fill="#FFFFFF" x="83.0914496" y="68.2410218" width="5.93510354" height="5.9340019" rx="1"></rect>
            <path d="M83.0914496,90.0107233 C83.0914496,89.4580548 83.537547,89.0100284 84.098259,89.0100284 L88.0197437,89.0100284 C88.5757892,89.0100284 89.0265531,89.4663787 89.0265531,90.0107233 L89.0265531,93.95503 L86.0420148,96.7868485 L83.0914496,93.95503 L83.0914496,90.0107233 Z" id="Rectangle-4-Copy" stroke="#807D83" fill="#FFFFFF" stroke-linejoin="round"></path>
            <path d="M83.0914496,201.767759 C83.0914496,201.215091 83.537547,200.767064 84.098259,200.767064 L88.0197437,200.767064 C88.5757892,200.767064 89.0265531,201.223414 89.0265531,201.767759 L89.0265531,205.712066 L86.0420148,208.543884 L83.0914496,205.712066 L83.0914496,201.767759 Z" id="Rectangle-4-Copy-2" stroke="#807D83" fill="#FFFFFF" stroke-linejoin="round" transform="translate(86.059001, 204.655474) scale(1, -1) translate(-86.059001, -204.655474) "></path>
            <path d="M14.2457552,56.3782426 L71.0653727,56.3782426" id="Path-5-Copy" stroke="#807D83" stroke-linecap="round"></path>
            <path d="M14.2457552,76.1582489 L71.0653727,76.1582489" id="Path-5-Copy-2" stroke="#807D83" stroke-linecap="round"></path>
            <path d="M29.0835141,95.9382552 L71.0653727,95.9382552" id="Path-5-Copy-3" stroke="#807D83" stroke-linecap="round"></path>
            <path d="M29.0835141,115.718262 L71.0653727,115.718262" id="Path-5-Copy-4" stroke="#807D83" stroke-linecap="round"></path>
            <path d="M29.0835141,135.498268 L71.0653727,135.498268" id="Path-5-Copy-5" stroke="#807D83" stroke-linecap="round"></path>
            <g id="Group-31" transform="translate(754.883721, 54.538206)" stroke="#807D83" stroke-linecap="round">
                <path d="M0,1.07641196 L10.7641196,1.07641196" id="Path-5-Copy-11"></path>
                <path d="M0,40.5448505 L10.7641196,40.5448505" id="Path-5-Copy-9"></path>
                <path d="M0,60.6378738 L10.7641196,60.6378738" id="Path-5-Copy-8"></path>
                <path d="M0,101.541528 L10.7641196,101.541528" id="Path-5-Copy-16"></path>
                <path d="M0,141.009967 L10.7641196,141.009967" id="Path-5-Copy-14"></path>
                <path d="M0,180.478405 L10.7641196,180.478405" id="Path-5-Copy-12"></path>
            </g>
        </g>
    </g>
</svg>