<svg xmlns="http://www.w3.org/2000/svg" width="46" height="46" viewBox="0 0 46 46" role="icon">
  <g fill="none" fill-rule="evenodd">
    <path fill="#CCEAFF" d="M37 12.933H8.2c-1.98 0-3.582 1.64-3.582 3.645L4.6 38.445c0 2.004 1.62 3.644 3.6 3.644H37c1.98 0 3.6-1.64 3.6-3.648V16.578c0-2.005-1.62-3.645-3.6-3.645z"/>
    <path fill="#4C8DBD" fill-rule="nonzero" d="M33.4 8.79c2.258 0 4.1 1.864 4.1 4.143V34.8c0 2.28-1.842 4.145-4.1 4.145H4.6C2.342 38.945.5 37.08.5 34.8l.018-21.867c0-2.28 1.827-4.144 4.082-4.144h28.8zm0 1H4.6c-1.698 0-3.082 1.41-3.082 3.144L1.5 34.8c0 1.73 1.398 3.145 3.1 3.145h28.8c1.702 0 3.1-1.415 3.1-3.145V12.933c0-1.73-1.398-3.144-3.1-3.144z"/>
    <path fill="#4C8DBD" fill-rule="nonzero" d="M18.775 26.005L3.97 16.448l-.54.84 15.345 9.907L34.57 16.998l-.54-.84"/>
    <path fill="#F2720C" d="M40.837 11.014c-.068-.064-.095-.147-.08-.248l.18-1.963-2.25.82c-.09.028-.157.043-.2.043-.122 0-.22-.064-.294-.194l-.272-.625c-.01-.044-.02-.1-.02-.173 0-.158.07-.26.206-.302l3.397-.905 3.376.948c.15.043.224.137.224.28 0 .03-.014.087-.043.173l-.292.626c-.06.115-.15.172-.27.172-.06 0-.134-.015-.224-.044l-2.208-.82.158 1.964v.043c0 .1-.03.172-.09.223-.06.05-.135.075-.226.075h-.81c-.103 0-.19-.03-.257-.097zM38.103 5.65c-.135-.043-.203-.143-.203-.3 0-.074.007-.13.02-.174l.273-.625c.075-.13.18-.19.315-.19.058 0 .12.014.18.043l2.25.82-.18-1.963v-.044c0-.086.033-.158.1-.215.07-.06.147-.086.237-.086h.81c.106 0 .188.034.246.098.065.066.087.15.07.25l-.155 1.962 2.207-.82c.09-.03.164-.042.223-.042.135 0 .225.056.27.17l.294.627c.03.085.043.15.043.194 0 .128-.074.214-.224.257l-3.376.95-3.396-.907z"/>
  </g>
</svg>
