<?xml version="1.0" encoding="UTF-8"?>
<svg width="370px" height="350px" viewBox="0 0 370 350" version="1.1" xmlns="http://www.w3.org/2000/svg" xmlns:xlink="http://www.w3.org/1999/xlink">
    <!-- Generator: Sketch 43.2 (39069) - http://www.bohemiancoding.com/sketch -->
    <title>Artboard 2</title>
    <desc>Created with Sketch.</desc>
    <defs>
        <linearGradient x1="-190.579726%" y1="255.006285%" x2="50%" y2="44.6976422%" id="linearGradient-1">
            <stop stop-color="#2DD7C9" offset="0%"></stop>
            <stop stop-color="#1B80AA" offset="100%"></stop>
        </linearGradient>
        <linearGradient x1="50%" y1="64.9819942%" x2="93.8179056%" y2="3.54909566%" id="linearGradient-2">
            <stop stop-color="#42DCCC" offset="0%"></stop>
            <stop stop-color="#32F2BE" offset="100%"></stop>
        </linearGradient>
        <linearGradient x1="50%" y1="64.9819942%" x2="94.7726801%" y2="2.21049749%" id="linearGradient-3">
            <stop stop-color="#42DCCC" offset="0%"></stop>
            <stop stop-color="#32F2BE" offset="100%"></stop>
        </linearGradient>
        <ellipse id="path-4" cx="327.576921" cy="36.2323651" rx="36.042935" ry="35.9958506"></ellipse>
        <ellipse id="path-5" cx="48.042935" cy="51.9958506" rx="36.042935" ry="35.9958506"></ellipse>
        <ellipse id="path-6" cx="324.999851" cy="228.26774" rx="36.042935" ry="35.9958506"></ellipse>
        <ellipse id="path-7" cx="36.042935" cy="206.995851" rx="36.042935" ry="35.9958506"></ellipse>
    </defs>
    <g id="Assets" stroke="none" stroke-width="1" fill="none" fill-rule="evenodd">
        <g id="Artboard-2">
            <g id="codota-algo" transform="translate(3.000000, 32.000000)">
                <path d="M213.806737,118.370609 L299.275386,54.3940701" id="Path-10" stroke="#FFFFFF" stroke-linecap="round" stroke-linejoin="round" stroke-dasharray="3,4"></path>
                <path d="M218.023203,168.590614 L296.579932,214.966209" id="Path-10-Copy" stroke="#FFFFFF" stroke-linecap="round" stroke-linejoin="round" stroke-dasharray="3,4"></path>
                <path d="M155.31244,161.630035 L66.1331466,195.890997" id="Path-10-Copy-2" stroke="#FFFFFF" stroke-linecap="round" stroke-linejoin="round" stroke-dasharray="3,4"></path>
                <path d="M154.175725,127.444665 L68.6587772,69.2981431" id="Path-10-Copy-3" stroke="#FFFFFF" stroke-linecap="round" stroke-linejoin="round" stroke-dasharray="3,4"></path>
                <g id="Group" transform="translate(148.000000, 97.000000)">
                    <path d="M0.808438037,25.9413965 C0.808438037,23.9498918 2.22099028,21.5620166 3.96995846,20.6043707 L39.0307204,1.40688339 C40.7767799,0.450830144 43.6047931,0.454999365 45.336719,1.41037837 L80.4315655,20.7696818 C82.1682128,21.7276653 83.5760437,24.1183503 83.5760437,26.0973761 L83.5760437,66.1993258 C83.5760437,68.1837467 82.1634914,70.5716411 80.4315655,71.5270201 L45.336719,90.8863236 C43.6000717,91.844307 40.7796886,91.8417026 39.0477627,90.8863236 L3.95291621,71.5270201 C2.21626887,70.5690366 0.808438037,68.1862658 0.808438037,66.1864994 L0.808438037,25.9413965 Z" id="Mask" fill="#FFFFFF"></path>
                    <g id="Group-2" transform="translate(8.996479, 14.529412)">
                        <g id="Group-Copy-3" transform="translate(50.435739, 31.255116) scale(1, -1) translate(-50.435739, -31.255116) translate(36.435739, 0.755116)">
                            <path d="M3.51786636,16.1492004 C3.51786636,14.1520345 4.95442369,11.782119 6.73067811,10.8536657 L27.3403916,0.0809088216 L27.3403916,36.0763571 L6.73067811,46.849114 C4.95629118,47.7765912 3.51786636,46.9118821 3.51786636,44.9122712 L3.51786636,16.1492004 Z" id="Rectangle-Copy-4" fill="url(#linearGradient-1)" transform="translate(15.429129, 23.651146) scale(1, -1) translate(-15.429129, -23.651146) "></path>
                            <path d="M0,29.746562 C0,27.7493961 1.42189084,25.3552386 3.17638776,24.3987859 L27.3403916,11.2259353 L27.3403916,47.2213836 L3.17638776,60.3942342 C1.42211724,61.3505635 0,60.5092436 0,58.5096327 L0,29.746562 Z" id="Rectangle-Copy-5" fill="url(#linearGradient-2)"></path>
                        </g>
                        <g id="Group-Copy" transform="translate(14.814236, 31.355462) scale(-1, 1) translate(-14.814236, -31.355462) translate(0.814236, 0.855462)">
                            <path d="M3.51786636,16.1492004 C3.51786636,14.1520345 4.95442369,11.782119 6.73067811,10.8536657 L27.3403916,0.0809088216 L27.3403916,36.0763571 L6.73067811,46.849114 C4.95629118,47.7765912 3.51786636,46.9118821 3.51786636,44.9122712 L3.51786636,16.1492004 Z" id="Rectangle-Copy-4" fill="url(#linearGradient-1)" transform="translate(15.429129, 23.651146) scale(1, -1) translate(-15.429129, -23.651146) "></path>
                            <path d="M0,29.746562 C0,27.7493961 1.42189084,25.3552386 3.17638776,24.3987859 L27.3403916,11.2259353 L27.3403916,47.2213836 L3.17638776,60.3942342 C1.42211724,61.3505635 0,60.5092436 0,58.5096327 L0,29.746562 Z" id="Rectangle-Copy-5" fill="url(#linearGradient-3)"></path>
                        </g>
                    </g>
                </g>
                <g id="Mask-Copy-7">
                    <use fill="#38373C" fill-rule="evenodd" xlink:href="#path-4"></use>
                    <ellipse stroke="#807D83" stroke-width="0.72" cx="327.576921" cy="36.2323651" rx="36.402935" ry="36.3558506"></ellipse>
                </g>
                <g id="Mask-Copy-12">
                    <use fill="#38373C" fill-rule="evenodd" xlink:href="#path-5"></use>
                    <ellipse stroke="#807D83" stroke-width="0.72" cx="48.042935" cy="51.9958506" rx="36.402935" ry="36.3558506"></ellipse>
                </g>
                <g id="Mask-Copy-13">
                    <use fill="#38373C" fill-rule="evenodd" xlink:href="#path-6"></use>
                    <ellipse stroke="#807D83" stroke-width="0.72" cx="324.999851" cy="228.26774" rx="36.402935" ry="36.3558506"></ellipse>
                </g>
                <path d="M327,16 C315.95,16 307,25.1763799 307,36.5058769 C307,45.5797274 312.725,53.2437988 320.675,55.9608275 C321.675,56.140254 322.05,55.5250776 322.05,54.9867984 C322.05,54.4997838 322.025,52.884946 322.025,51.1675788 C317,52.1159756 315.7,49.9115939 315.3,48.7581383 C315.075,48.1685943 314.1,46.3486978 313.25,45.8616832 C312.55,45.477198 311.55,44.5288012 313.225,44.5031688 C314.8,44.4775365 315.925,45.9898449 316.3,46.6050212 C318.1,49.7065351 320.975,48.8350353 322.125,48.2967561 C322.3,46.9638741 322.825,46.0667419 323.4,45.554095 C318.95,45.0414481 314.3,43.2728162 314.3,35.4293183 C314.3,33.1993042 315.075,31.3537753 316.35,29.9183639 C316.15,29.405717 315.45,27.3038646 316.55,24.4843066 C316.55,24.4843066 318.225,23.9460273 322.05,26.5861589 C323.65,26.1247767 325.35,25.8940856 327.05,25.8940856 C328.75,25.8940856 330.45,26.1247767 332.05,26.5861589 C335.875,23.9203949 337.55,24.4843066 337.55,24.4843066 C338.65,27.3038646 337.95,29.405717 337.75,29.9183639 C339.025,31.3537753 339.8,33.1736719 339.8,35.4293183 C339.8,43.2984486 335.125,45.0414481 330.675,45.554095 C331.4,46.1949037 332.025,47.4252563 332.025,49.3476822 C332.025,52.0903433 332,54.294725 332,54.9867984 C332,55.5250776 332.375,56.1658863 333.375,55.9608275 C341.516115,53.1429517 346.997803,45.3157248 347,36.5058769 C347,25.1763799 338.05,16 327,16 L327,16 Z" id="github" fill="#FFFFFF" opacity="0.600000024"></path>
                <g id="Group-58" transform="translate(309.000000, 207.000000)" fill="#FFFFFF" opacity="0.600000024">
                    <polygon id="Shape" points="24.36 34.0733333 24.36 24.1933333 27.608 24.1933333 27.608 37.4933333 0 37.4933333 0 24.1933333 3.248 24.1933333 3.248 34.0733333"></polygon>
                    <path d="M6.38,23.3066667 L21.46,26.7266667 L22.04,23.4333333 L6.96,20.0133333 L6.38,23.3066667 Z M8.352,15.3266667 L22.272,22.42 L23.548,19.38 L9.628,12.2866667 L8.352,15.3266667 L8.352,15.3266667 Z M12.296,7.85333333 L24.128,18.62 L26.1,16.0866667 L14.268,5.32 L12.296,7.85333333 L12.296,7.85333333 Z M19.836,7.20016639e-14 L17.4,2.02666667 L26.564,15.4533333 L29,13.4266667 L19.836,0 L19.836,7.20016639e-14 Z M6.148,30.9066667 L21.576,30.9066667 L21.576,27.4866667 L6.148,27.4866667 L6.148,30.9066667 Z" id="Shape"></path>
                </g>
                <g id="Mask-Copy-15">
                    <use fill="#38373C" fill-rule="evenodd" xlink:href="#path-7"></use>
                    <ellipse stroke="#807D83" stroke-width="0.72" cx="36.042935" cy="206.995851" rx="36.402935" ry="36.3558506"></ellipse>
                </g>
                <g id="bitbucket" transform="translate(31.000000, 34.000000)" fill-rule="nonzero" fill="#FFFFFF" opacity="0.600000024">
                    <path d="M16.5,0 C7.44201562,0 0.001546875,2.42452881 0.001546875,5.49557288 C0.001546875,6.30374915 1.94248828,17.7797492 2.75124609,22.3054847 C3.07480078,24.4066915 8.41255078,27.3160746 16.5,27.3160746 C24.5875781,27.3160746 29.7635508,24.4066915 30.2487539,22.3054847 C31.0575117,17.7797492 32.9984531,6.30374915 32.9984531,5.49557288 C32.8368047,2.42452881 25.5579844,0 16.5,0 Z M16.5,23.5985153 C13.5885234,23.5985153 11.3240273,21.3356475 11.3240273,18.4262644 C11.3240273,15.5168814 13.5885234,13.2540136 16.5,13.2540136 C19.4114766,13.2540136 21.6759727,15.5168814 21.6759727,18.4262644 C21.6759727,21.1739864 19.4114766,23.5985153 16.5,23.5985153 Z M16.5,7.11192542 C10.6770469,7.11192542 5.98627734,6.14195932 5.98627734,4.84905763 C5.98627734,3.55589831 10.6770469,2.58618983 16.5,2.58618983 C22.3229531,2.58618983 27.0137227,3.55589831 27.0137227,4.84905763 C27.0137227,6.14208814 22.3229531,7.11192542 16.5,7.11192542 Z" id="Shape"></path>
                    <path d="M28.43775,26.6695593 C28.1141953,26.6695593 27.9525469,26.8312203 27.9525469,26.8312203 C27.9525469,26.8312203 23.9087578,30.0639254 16.6300664,30.0639254 C9.35124609,30.0639254 5.30758594,26.8312203 5.30758594,26.8312203 C5.30758594,26.8312203 4.98403125,26.6695593 4.82225391,26.6695593 C4.49869922,26.6695593 4.17527344,26.8312203 4.17527344,27.3162034 L4.17527344,27.4777356 C4.82238281,30.8719729 5.30758594,33.2965017 5.30758594,33.6198237 C5.79278906,36.0443525 10.6453359,37.9840271 16.4682891,37.9840271 C22.2912422,37.9840271 27.1437891,36.0443525 27.6289922,33.6198237 C27.6289922,33.2965017 28.1143242,30.8719729 28.7613047,27.4777356 L28.7613047,27.3160746 C28.923082,26.9927525 28.7613047,26.6695593 28.43775,26.6695593 L28.43775,26.6695593 Z" id="Shape"></path>
                    <ellipse id="Oval" cx="16.5" cy="18.2646034" rx="2.58805078" ry="2.58618983"></ellipse>
                </g>
                <g id="new-google-google-google-2015-g-icon" opacity="0.600000024" transform="translate(20.000000, 191.000000)" fill-rule="nonzero" fill="#FFFFFF">
                    <path d="M33.1679148,13.8340929 C33.3791368,14.9630453 33.494473,16.1451448 33.494473,17.379748 C33.4945534,27.0254127 27.0393417,33.8848379 17.2918636,33.8848379 C7.96666877,33.8848379 0.413391957,26.3287121 0.413391957,17 C0.413391957,7.67128788 7.96666877,0.115162113 17.2918636,0.115162113 C21.8493725,0.115162113 25.6569145,1.79295217 28.5795425,4.51567248 L23.8210994,9.27534747 L23.8210994,9.26449294 C22.0491814,7.57584834 19.8024157,6.71070141 17.2918636,6.71070141 C11.7222091,6.71070141 7.19660859,11.4173098 7.19660859,16.9896279 C7.19660859,22.5608203 11.7221287,27.2787657 17.2918636,27.2787657 C22.3449565,27.2787657 25.7835834,24.3870362 26.4914344,20.4193405 L17.2918636,20.4193405 L17.2918636,13.8340929 L33.1679148,13.8340929 Z" id="Shape"></path>
                </g>
            </g>
        </g>
    </g>
</svg>