<?xml version="1.0" encoding="UTF-8"?>
<svg width="878px" height="390px" viewBox="0 0 878 390" version="1.1" xmlns="http://www.w3.org/2000/svg" xmlns:xlink="http://www.w3.org/1999/xlink">
    <!-- Generator: Sketch 43.2 (39069) - http://www.bohemiancoding.com/sketch -->
    <title>ide-light</title>
    <desc>Created with Sketch.</desc>
    <defs></defs>
    <g id="Assets" stroke="none" stroke-width="1" fill="none" fill-rule="evenodd">
        <g id="ide-light">
            <path d="M124.978765,90.5 L206.279042,90.5" id="Path-9" stroke="#34C62F" stroke-width="5" stroke-linecap="round"></path>
            <path d="M139.978765,113 L346.279042,113" id="Path-9-Copy" stroke="#E46283" stroke-width="5" stroke-linecap="round"></path>
            <path d="M140,225 L261.822771,225" id="Path-9-Copy-3" stroke="#2796DB" stroke-width="5" stroke-linecap="round"></path>
            <path d="M140,247.5 L173.879851,247.5" id="Path-9-Copy-2" stroke="#807D83" stroke-width="5" stroke-linecap="round"></path>
            <g id="Group-4" opacity="0.5">
                <path d="M877.487432,34.7737351 L206.994627,34.7737351 C206.441749,34.7737351 205.993552,34.32753 205.993552,33.7723446 L205.993552,22.8636391 C205.993552,21.2072379 204.64546,19.8644594 202.997773,19.8644594 L117.3844,19.8644594 C115.729877,19.8644594 114.388621,21.2138539 114.388621,22.8636391 L114.388621,33.7723446 C114.388621,34.3253973 113.942032,34.7737351 113.387699,34.7737351 L0.610717319,34.7737351" id="Rectangle-9-Copy" stroke="#FFFFFF" stroke-linecap="round" stroke-linejoin="round"></path>
                <path d="M87.128337,44.9553314 L87.128337,418.77708" id="Path-5" stroke="#FFFFFF"></path>
                <rect id="Rectangle-4" stroke="#FFFFFF" fill="#2D233C" x="84" y="69" width="6" height="6" rx="1"></rect>
                <path d="M84,90.9998075 C84,90.4476291 84.4509752,90 84.990778,90 L89.009222,90 C89.5564136,90 90,90.4437166 90,90.9998075 L90,95 L86.9828277,97.863314 L84,95 L84,90.9998075 Z" id="Rectangle-4-Copy" stroke="#FFFFFF" fill="#2D233C" stroke-linejoin="round"></path>
                <path d="M84,203.999807 C84,203.447629 84.4509752,203 84.990778,203 L89.009222,203 C89.5564136,203 90,203.443717 90,203.999807 L90,208 L86.9828277,210.863314 L84,208 L84,203.999807 Z" id="Rectangle-4-Copy-2" stroke="#FFFFFF" fill="#2D233C" stroke-linejoin="round" transform="translate(87.000000, 206.931657) scale(1, -1) translate(-87.000000, -206.931657) "></path>
                <path d="M14.4015232,57.0052827 L71.8424259,57.0052827" id="Path-5-Copy" stroke="#FFFFFF" stroke-linecap="round"></path>
                <polyline id="Path-5-Copy-7" stroke="#FFFFFF" stroke-linecap="round" points="295 99.1027578 291.047352 99.1027578 291.047352 92.1881415 289 90.0513789 291.047352 87.5380337 291.047352 81 295 81"></polyline>
                <path d="M228.55,95 L227.29,95 L226.975,89.6 C226.915,88.6499953 226.885,87.4050077 226.885,85.865 L225.145,93.14 L223.84,93.14 L221.98,85.865 C222,86.2250018 222.01,86.704997 222.01,87.305 C222.01,88.2250046 221.99,88.989997 221.95,89.6 L221.68,95 L220.45,95 L221.035,84.665 L222.85,84.665 L224.53,91.745 L226.135,84.665 L227.965,84.665 L228.55,95 Z M234.079231,95.045 C233.769229,95.9550045 233.344233,96.6799973 232.804231,97.22 C232.264228,97.7600027 231.509236,98.0799995 230.539231,98.18 L230.359231,97.175 C230.889233,97.0849995 231.311729,96.9475009 231.626731,96.7625 C231.941732,96.5774991 232.18923,96.3475014 232.369231,96.0725 C232.549232,95.7974986 232.71423,95.4400022 232.864231,95 L232.444231,95 L229.699231,87.095 L231.034231,87.095 L233.299231,94.04 L235.534231,87.095 L236.839231,87.095 L234.079231,95.045 Z M244.558462,84.7475 C245.018464,84.9125008 245.468459,85.1649983 245.908462,85.505 L245.173462,86.36 C244.563458,85.8499975 243.838466,85.595 242.998462,85.595 C242.068457,85.595 241.310964,85.9324966 240.725962,86.6075 C240.140959,87.2825034 239.848462,88.3549926 239.848462,89.825 C239.848462,91.2850073 240.133459,92.3549966 240.703462,93.035 C241.273464,93.7150034 242.033457,94.055 242.983462,94.055 C243.503464,94.055 243.94846,93.9800008 244.318462,93.83 C244.688463,93.6799992 245.04346,93.4700014 245.383462,93.2 L246.058462,94.04 C245.288458,94.7900037 244.258468,95.165 242.968462,95.165 C242.118457,95.165 241.353465,94.9575021 240.673462,94.5425 C239.993458,94.1274979 239.458463,93.520004 239.068462,92.72 C238.67846,91.919996 238.483462,90.9550057 238.483462,89.825 C238.483462,88.7049944 238.68096,87.742504 239.075962,86.9375 C239.470964,86.132496 240.005958,85.525002 240.680962,85.115 C241.355965,84.704998 242.098457,84.5 242.908462,84.5 C243.548465,84.5 244.098459,84.5824992 244.558462,84.7475 Z M250.897692,93.05 C250.897692,93.7600035 251.332688,94.115 252.202692,94.115 C252.612694,94.115 253.05269,94.0250009 253.522692,93.845 L253.852692,94.76 C253.35269,95.0300013 252.727696,95.165 251.977692,95.165 C251.267689,95.165 250.700194,94.9700019 250.275192,94.58 C249.85019,94.189998 249.637692,93.6600033 249.637692,92.99 L249.637692,84.92 L247.207692,84.92 L247.207692,83.915 L250.897692,83.915 L250.897692,93.05 Z M262.396923,93.9575 C262.496924,94.1025007 262.661922,94.2099997 262.891923,94.28 L262.576923,95.18 C261.806919,95.0799995 261.326924,94.7050033 261.136923,94.055 C260.856922,94.4150018 260.504425,94.689999 260.079423,94.88 C259.654421,95.070001 259.181926,95.165 258.661923,95.165 C257.871919,95.165 257.249425,94.9450022 256.794423,94.505 C256.339421,94.0649978 256.111923,93.4750037 256.111923,92.735 C256.111923,91.9249959 256.42942,91.3000022 257.064423,90.86 C257.699426,90.4199978 258.611917,90.2 259.801923,90.2 L260.971923,90.2 L260.971923,89.555 C260.971923,88.9949972 260.811925,88.5925012 260.491923,88.3475 C260.171921,88.1024988 259.706926,87.98 259.096923,87.98 C258.49692,87.98 257.811927,88.1149987 257.041923,88.385 L256.696923,87.425 C257.626928,87.0949983 258.491919,86.93 259.291923,86.93 C260.251928,86.93 260.984421,87.1549978 261.489423,87.605 C261.994426,88.0550023 262.246923,88.679996 262.246923,89.48 L262.246923,93.275 C262.246923,93.5850016 262.296923,93.8124993 262.396923,93.9575 Z M260.094423,93.92 C260.449425,93.719999 260.741922,93.4450018 260.971923,93.095 L260.971923,91.07 L259.831923,91.07 C258.991919,91.07 258.386925,91.2099986 258.016923,91.49 C257.646921,91.7700014 257.461923,92.1799973 257.461923,92.72 C257.461923,93.720005 257.966918,94.22 258.976923,94.22 C259.366925,94.22 259.739421,94.120001 260.094423,93.92 Z M269.471154,93.785 C269.821156,93.5549989 269.996154,93.2500019 269.996154,92.87 C269.996154,92.6099987 269.951154,92.3975008 269.861154,92.2325 C269.771153,92.0674992 269.591155,91.9175007 269.321154,91.7825 C269.051152,91.6474993 268.641157,91.5100007 268.091154,91.37 C267.171149,91.1399988 266.491156,90.8625016 266.051154,90.5375 C265.611152,90.2124984 265.391154,89.7300032 265.391154,89.09 C265.391154,88.4299967 265.666151,87.9050019 266.216154,87.515 C266.766157,87.1249981 267.491149,86.93 268.391154,86.93 C269.491159,86.93 270.45115,87.2199971 271.271154,87.8 L270.701154,88.67 C270.371152,88.4399988 270.026156,88.2625006 269.666154,88.1375 C269.306152,88.0124994 268.891156,87.95 268.421154,87.95 C267.281148,87.95 266.711154,88.2949965 266.711154,88.985 C266.711154,89.2250012 266.773653,89.4199993 266.898654,89.57 C267.023654,89.7200007 267.228652,89.8524994 267.513654,89.9675 C267.798655,90.0825006 268.226151,90.2199992 268.796154,90.38 C269.656158,90.6100012 270.298652,90.9024982 270.723654,91.2575 C271.148656,91.6125018 271.361154,92.1299966 271.361154,92.81 C271.361154,93.600004 271.041157,94.189998 270.401154,94.58 C269.761151,94.9700019 268.976158,95.165 268.046154,95.165 C266.806148,95.165 265.776158,94.8100036 264.956154,94.1 L265.661154,93.275 C265.981155,93.5350013 266.346152,93.7424992 266.756154,93.8975 C267.166156,94.0525008 267.596152,94.13 268.046154,94.13 C268.646157,94.13 269.121152,94.0150012 269.471154,93.785 Z M278.240385,93.785 C278.590386,93.5549989 278.765385,93.2500019 278.765385,92.87 C278.765385,92.6099987 278.720385,92.3975008 278.630385,92.2325 C278.540384,92.0674992 278.360386,91.9175007 278.090385,91.7825 C277.820383,91.6474993 277.410387,91.5100007 276.860385,91.37 C275.94038,91.1399988 275.260387,90.8625016 274.820385,90.5375 C274.380382,90.2124984 274.160385,89.7300032 274.160385,89.09 C274.160385,88.4299967 274.435382,87.9050019 274.985385,87.515 C275.535387,87.1249981 276.26038,86.93 277.160385,86.93 C278.26039,86.93 279.220381,87.2199971 280.040385,87.8 L279.470385,88.67 C279.140383,88.4399988 278.795386,88.2625006 278.435385,88.1375 C278.075383,88.0124994 277.660387,87.95 277.190385,87.95 C276.050379,87.95 275.480385,88.2949965 275.480385,88.985 C275.480385,89.2250012 275.542884,89.4199993 275.667885,89.57 C275.792885,89.7200007 275.997883,89.8524994 276.282885,89.9675 C276.567886,90.0825006 276.995382,90.2199992 277.565385,90.38 C278.425389,90.6100012 279.067882,90.9024982 279.492885,91.2575 C279.917887,91.6125018 280.130385,92.1299966 280.130385,92.81 C280.130385,93.600004 279.810388,94.189998 279.170385,94.58 C278.530381,94.9700019 277.745389,95.165 276.815385,95.165 C275.575378,95.165 274.545389,94.8100036 273.725385,94.1 L274.430385,93.275 C274.750386,93.5350013 275.115383,93.7424992 275.525385,93.8975 C275.935387,94.0525008 276.365382,94.13 276.815385,94.13 C277.415388,94.13 277.890383,94.0150012 278.240385,93.785 Z" id="MyClass" fill="#FFFFFF"></path>
                <polyline id="Path-5-Copy-10" stroke="#FFFFFF" stroke-linecap="round" transform="translate(125.000000, 270.051379) scale(-1, 1) translate(-125.000000, -270.051379) " points="128 279.102758 124.047352 279.102758 124.047352 272.188142 122 270.051379 124.047352 267.538034 124.047352 261 128 261"></polyline>
                <path d="M14.4015232,77.0052827 L71.8424259,77.0052827" id="Path-5-Copy-2" stroke="#FFFFFF" stroke-linecap="round"></path>
                <path d="M29.4015232,97.0052827 L71.8424259,97.0052827" id="Path-5-Copy-3" stroke="#FFFFFF" stroke-linecap="round"></path>
                <path d="M29.4015232,117.005283 L71.8424259,117.005283" id="Path-5-Copy-4" stroke="#FFFFFF" stroke-linecap="round"></path>
                <path d="M29.4015232,137.005283 L71.8424259,137.005283" id="Path-5-Copy-5" stroke="#FFFFFF" stroke-linecap="round"></path>
                <rect id="Rectangle-9" stroke="#FFFFFF" x="0.5" y="0.5" width="877" height="430" rx="10"></rect>
            </g>
            <g id="Group-12" transform="translate(15.000000, 14.000000)">
                <circle id="Oval-4" fill="#FF7F77" cx="4" cy="4" r="4"></circle>
                <circle id="Oval-4-Copy" fill="#FFCE4D" cx="20" cy="4" r="4"></circle>
                <circle id="Oval-4-Copy-2" fill="#4CD763" cx="36" cy="4" r="4"></circle>
            </g>
        </g>
    </g>
</svg>