<?xml version="1.0" encoding="UTF-8"?>
<svg width="247px" height="162px" viewBox="0 0 247 162" version="1.1" xmlns="http://www.w3.org/2000/svg" xmlns:xlink="http://www.w3.org/1999/xlink">
    <!-- Generator: Sketch 43.2 (39069) - http://www.bohemiancoding.com/sketch -->
    <title>laptop</title>
    <desc>Created with Sketch.</desc>
    <defs></defs>
    <g id="Assets" stroke="none" stroke-width="1" fill="none" fill-rule="evenodd">
        <g id="laptop" transform="translate(1.000000, 1.000000)" stroke="#807D83">
            <path d="M24.3105882,9.0021625 C24.3105882,4.03040544 28.3382784,0 33.3106938,0 L212.470586,0 C217.441207,0 221.470691,4.02657854 221.470691,9.0021625 L221.470691,117.187488 C221.470691,120.17313 219.04899,122.593472 216.069178,122.593472 L29.7121017,122.593472 C26.7289282,122.593472 24.3105882,120.172178 24.3105882,117.187488 L24.3105882,9.0021625 Z" id="Rectangle-9" fill="#2B2A2D"></path>
            <ellipse id="Oval-4-Copy-2" stroke-width="0.9" cx="122.521372" cy="6.6795356" rx="1.54725443" ry="1.48097964"></ellipse>
            <path d="M96.3752857,127.65343 L29.4853231,127.65343 C26.5021497,127.65343 22.4049362,129.392818 20.3273772,131.545261 L2.10132533,150.428265 C0.0267049613,152.577664 0.765726252,154.320096 3.7401209,154.320096 L241.587602,154.320096 C244.567304,154.320096 245.303956,152.580708 243.226397,150.428265 L225.000345,131.545261 C222.925725,129.395862 218.822212,127.65343 215.842399,127.65343 L148.953456,127.65343 L149.345264,128.173002 C150.188552,129.291278 149.733184,130.202848 148.323492,130.202848 L97.0052493,130.202848 C95.5926023,130.202848 95.1380953,129.294055 95.9834778,128.173002 L96.3752857,127.65343 Z" id="Combined-Shape" stroke-linecap="round" stroke-linejoin="round"></path>
            <path d="M0,153.068592 L0,156.340938 C0,158.148205 1.47304217,159.613285 3.2626104,159.613285 L242.286656,159.613285 C244.088546,159.613285 245.549267,158.138675 245.549267,156.349642 L245.549267,154.216814" id="Combined-Shape-Copy-2" stroke-width="0.9" stroke-linecap="round" stroke-linejoin="round"></path>
            <path d="M84.5495127,149.502612 C83.9198713,150.266365 84.2153204,150.885508 85.2040082,150.885508 L160.443793,150.885508 C161.434903,150.885508 161.723169,150.260589 161.098289,149.502612 L157.082927,144.631994 C156.453286,143.868241 155.129266,143.249097 154.136804,143.249097 L91.5109977,143.249097 C90.51354,143.249097 89.1897539,143.874017 88.5648741,144.631994 L84.5495127,149.502612 Z" id="Combined-Shape-Copy" stroke-linecap="round" stroke-linejoin="round"></path>
        </g>
    </g>
</svg>