<?xml version="1.0" encoding="UTF-8"?>
<svg width="154px" height="332px" viewBox="0 0 154 332" version="1.1" xmlns="http://www.w3.org/2000/svg" xmlns:xlink="http://www.w3.org/1999/xlink">
    <!-- Generator: Sketch 43.2 (39069) - http://www.bohemiancoding.com/sketch -->
    <title>search-codota</title>
    <desc>Created with Sketch.</desc>
    <defs>
        <path d="M1.42108547e-13,6.00550968 C1.42108547e-13,2.68875827 2.68625297,0 5.99205613,0 L145.079865,0 C148.389186,0 151.071921,2.67874998 151.071921,6.00550968 L151.071921,323.777012 C151.071921,327.093763 148.385668,329.782521 145.079865,329.782521 L5.99205613,329.782521 C2.68273491,329.782521 1.42108547e-13,327.103771 1.42108547e-13,323.777012 L1.42108547e-13,6.00550968 Z" id="path-1"></path>
    </defs>
    <g id="Assets" stroke="none" stroke-width="1" fill="none" fill-rule="evenodd">
        <g id="search-codota" transform="translate(1.000000, 1.000000)">
            <g id="Rectangle-9-Copy-2" transform="translate(75.535960, 164.891261) scale(-1, 1) translate(-75.535960, -164.891261) ">
                <use fill="#38373C" fill-rule="evenodd" xlink:href="#path-1"></use>
                <path stroke="#807D83" stroke-width="1" d="M-0.5,6.00550968 L-0.5,323.777012 C-0.5,327.376335 2.40301755,330.282521 5.99205613,330.282521 L145.079865,330.282521 C148.663231,330.282521 151.571921,327.368483 151.571921,323.777012 L151.571921,6.00550968 C151.571921,2.40618622 148.668903,-0.5 145.079865,-0.5 L5.99205613,-0.5 C2.40868971,-0.5 -0.5,2.4140386 -0.5,6.00550968 Z"></path>
            </g>
            <path d="M6.04287684,75.7760168 C6.04287684,74.6665464 6.93041515,73.7671429 8.0343316,73.7671429 L143.037589,73.7671429 C144.137439,73.7671429 145.029044,74.6594495 145.029044,75.7760168 L145.029044,188.917849 C145.029044,190.027319 144.141506,190.926723 143.037589,190.926723 L8.0343316,190.926723 C6.9344815,190.926723 6.04287684,190.034416 6.04287684,188.917849 L6.04287684,75.7760168 Z" id="Rectangle-9-Copy-6" fill="#2B2A2D" transform="translate(75.535960, 132.346933) scale(-1, 1) translate(-75.535960, -132.346933) "></path>
            <path d="M-0.5,5.99980032 L-0.5,25.1823239 L-0.5,25.6823239 L1.04054003e-16,25.6823239 L34.1429794,25.6823239 L34.4514526,25.6823239 L34.5898403,25.4066347 L40.3713296,13.8890378 C40.7879108,13.0591454 41.9041266,12.3692692 42.8210831,12.3692692 L106.730477,12.3692692 C107.641359,12.3692692 108.767547,13.0669114 109.18023,13.8890378 L114.96172,25.4066347 L115.100107,25.6823239 L115.408581,25.6823239 L151.071921,25.6823239 L151.571921,25.6823239 L151.571921,25.1823239 L151.571921,5.99980032 C151.571921,2.41604311 148.662572,-0.5 145.079865,-0.5 L5.99205613,-0.5 C2.40879633,-0.5 -0.5,2.41137497 -0.5,5.99980032 Z" id="Rectangle-9-Copy" stroke="#807D83"></path>
            <ellipse id="Oval-4" fill="#FF7F77" opacity="0.5" cx="8.87718379" cy="9.80532532" rx="2.67310216" ry="2.56394601"></ellipse>
            <ellipse id="Oval-4-Copy" fill="#FFCE4D" opacity="0.5" cx="19.5695924" cy="9.80532532" rx="2.67310216" ry="2.56394601"></ellipse>
            <ellipse id="Oval-4-Copy-2" fill="#4CD763" opacity="0.5" cx="30.2620011" cy="9.80532532" rx="2.67310216" ry="2.56394601"></ellipse>
            <ellipse id="Oval-9" fill="#FFFFFF" opacity="0.200000003" cx="134.45401" cy="13.0177311" rx="6.04287684" ry="5.78565827"></ellipse>
            <path d="M25.6822266,40.8612115 L122.200597,40.8612115" id="Path-9-Copy-5" stroke="#2796DB" stroke-linecap="round"></path>
            <ellipse id="Oval-9-Copy-2" fill="#2796DB" cx="16.2402315" cy="40.8612115" rx="2.64375862" ry="2.53122549"></ellipse>
            <path d="M21.1500689,91.4857214 L102.561247,91.4857214" id="Path-9-Copy-3" stroke="#FFFFFF" stroke-linecap="round"></path>
            <path d="M36.257261,104.305451 L89.1127208,104.305451" id="Path-9-Copy-2" stroke="#FFFFFF" stroke-linecap="round"></path>
            <path d="M6.04287684,198.718133 C6.04287684,197.610387 6.93041515,196.712381 8.0343316,196.712381 L143.037589,196.712381 C144.137439,196.712381 145.029044,197.602003 145.029044,198.718133 L145.029044,320.779046 C145.029044,321.886792 144.141506,322.784798 143.037589,322.784798 L8.0343316,322.784798 C6.9344815,322.784798 6.04287684,321.895176 6.04287684,320.779046 L6.04287684,198.718133 Z" id="Rectangle-9-Copy-7" fill="#2B2A2D" transform="translate(75.535960, 259.748589) scale(-1, 1) translate(-75.535960, -259.748589) "></path>
            <path d="M21.1500689,118.967598 L57.2396705,118.967598" id="Path-9-Copy-5" stroke="#2796DB" stroke-linecap="round"></path>
            <path d="M21.1500689,250.591324 L102.561247,250.591324" id="Path-9-Copy-8" stroke="#FFFFFF" stroke-linecap="round"></path>
            <path d="M36.257261,263.411054 L89.1127208,263.411054" id="Path-9-Copy-7" stroke="#B54A91" stroke-linecap="round"></path>
            <path d="M36.257261,234.482762 L119.327105,234.482762" id="Path-9-Copy-9" stroke="#EBB430" stroke-linecap="round"></path>
            <path d="M21.1500689,278.0732 L57.2396705,278.0732" id="Path-9-Copy-6" stroke="#FFFFFF" stroke-linecap="round"></path>
            <path d="M21.1500689,220.216618 L57.2396705,220.216618" id="Path-9-Copy-10" stroke="#FFFFFF" stroke-linecap="round"></path>
            <path d="M21.1500689,162.162034 L74.0055287,162.162034" id="Path-9-Copy-4" stroke="#FFFFFF" stroke-linecap="round"></path>
            <path d="M6.04287684,58.4510459 C6.04287684,57.8952293 6.48324821,57.4446509 7.04078878,57.4446509 L63.9630141,57.4446509 C64.5141456,57.4446509 64.960926,57.9007208 64.960926,58.4510459 L64.960926,64.9210143 C64.960926,65.4768309 64.5205547,65.9274093 63.9630141,65.9274093 L7.04078878,65.9274093 C6.48965723,65.9274093 6.04287684,65.4713394 6.04287684,64.9210143 L6.04287684,58.4510459 Z" id="Rectangle-9-Copy-4" fill="#2796DB" transform="translate(35.501901, 61.686030) scale(-1, 1) translate(-35.501901, -61.686030) "></path>
            <path d="M69.016378,58.4510459 C69.016378,57.8952293 69.466841,57.4446509 70.0071667,57.4446509 L105.79357,57.4446509 C106.340767,57.4446509 106.784358,57.9007208 106.784358,58.4510459 L106.784358,64.9210143 C106.784358,65.4768309 106.333895,65.9274093 105.79357,65.9274093 L70.0071667,65.9274093 C69.4599693,65.9274093 69.016378,65.4713394 69.016378,64.9210143 L69.016378,58.4510459 Z" id="Rectangle-9-Copy-5" fill="#B54A91" transform="translate(87.900368, 61.686030) scale(-1, 1) translate(-87.900368, -61.686030) "></path>
        </g>
    </g>
</svg>